<svg xmlns="http://www.w3.org/2000/svg" version="1.1" xmlns:xlink="http://www.w3.org/1999/xlink" xmlns:svgjs="http://svgjs.dev/svgjs" width="2000" height="1500" viewBox="0 0 2000 1500"><rect width="2000" height="1500" fill="#ffffff"></rect><g transform="matrix(0.75,0,0,0.75,249.090909090909,588.2071581368186)"><svg viewBox="0 0 396 84" data-background-color="#ffffff" preserveAspectRatio="xMidYMid meet" height="424" width="2000" xmlns="http://www.w3.org/2000/svg" xmlns:xlink="http://www.w3.org/1999/xlink"><g id="tight-bounds" transform="matrix(1,0,0,1,0.2400000000000091,3.7342606976423838)"><svg viewBox="0 0 395.52 80.08283476377204" height="80.08283476377204" width="395.52"><g><svg viewBox="0 0 561.5654148577426 113.70284771213011" height="80.08283476377204" width="395.52"><g><rect width="6.690430641002009" height="113.70284771213011" x="141.840767879039" y="0" fill="#111111" opacity="1" stroke-width="0" stroke="transparent" fill-opacity="1" class="rect-yte-0" data-fill-palette-color="primary" rx="1%" id="yte-0" data-palette-color="#111111"></rect></g><g transform="matrix(1,0,0,1,166.04541485774257,0.28284290475653506)"><svg viewBox="0 0 395.52 113.13716190261704" height="113.13716190261704" width="395.52"><g id="textblocktransform"><svg viewBox="0 0 395.52 113.13716190261704" height="113.13716190261704" width="395.52" id="textblock"><g><svg viewBox="0 0 395.52 74.18888975457732" height="74.18888975457732" width="395.52"><g transform="matrix(1,0,0,1,0,0)"><svg width="395.52" viewBox="1.7 -40.55 256.68 48.15" height="74.18888975457732" data-palette-color="#111111"><path d="M20.05 0L25.15-1.85Q26.8 0.3 28.53 1.53 30.25 2.75 32.05 2.75L32.05 2.75Q33.45 2.75 35.13 1.98 36.8 1.2 38.5-0.2L38.5-0.2 40.85 3.75Q38.85 5.6 36.33 6.6 33.8 7.6 31.35 7.6L31.35 7.6Q28 7.6 25.08 5.6 22.15 3.6 20.05 0L20.05 0ZM20.25-35.35L20.25-35.35Q24.15-35.35 27.53-34 30.9-32.65 33.43-30.2 35.95-27.75 37.38-24.53 38.8-21.3 38.8-17.55L38.8-17.55Q38.8-13.8 37.38-10.53 35.95-7.25 33.43-4.8 30.9-2.35 27.53-0.98 24.15 0.4 20.25 0.4L20.25 0.4Q16.35 0.4 12.98-0.98 9.6-2.35 7.08-4.8 4.55-7.25 3.13-10.53 1.7-13.8 1.7-17.55L1.7-17.55Q1.7-21.3 3.13-24.55 4.55-27.8 7.08-30.23 9.6-32.65 12.98-34 16.35-35.35 20.25-35.35ZM20.3-30.35L20.3-30.35Q17.7-30.35 15.43-29.38 13.15-28.4 11.4-26.65 9.65-24.9 8.68-22.58 7.7-20.25 7.7-17.55L7.7-17.55Q7.7-14.85 8.7-12.5 9.7-10.15 11.45-8.38 13.2-6.6 15.48-5.6 17.75-4.6 20.3-4.6L20.3-4.6Q22.85-4.6 25.13-5.6 27.4-6.6 29.1-8.38 30.8-10.15 31.78-12.5 32.75-14.85 32.75-17.55L32.75-17.55Q32.75-20.25 31.78-22.58 30.8-24.9 29.1-26.65 27.4-28.4 25.13-29.38 22.85-30.35 20.3-30.35ZM45.45 5.85L45.45-40.55 49.8-40.55 49.8 5.85 45.45 5.85ZM58.95 0L58.95-35 64.85-35 64.85-5.05 80-5.05 80 0 58.95 0ZM85.59 5.85L85.59-40.55 89.94-40.55 89.94 5.85 85.59 5.85ZM99.09 0L99.09-35 104.99-35 104.99 0 99.09 0ZM114.14 5.85L114.14-40.55 118.49-40.55 118.49 5.85 114.14 5.85ZM127.64 0L127.64-35 133.44-35 153.69-7.25 152.19-6.75 152.19-35 157.99-35 157.99 0 152.19 0 131.99-27.7 133.54-28.2 133.54 0 127.64 0ZM167.18 5.85L167.18-40.55 171.53-40.55 171.53 5.85 167.18 5.85ZM209.98-30.4L206.63-26.35Q204.63-28.25 201.96-29.33 199.28-30.4 196.53-30.4L196.53-30.4Q193.83-30.4 191.53-29.4 189.23-28.4 187.48-26.65 185.73-24.9 184.76-22.58 183.78-20.25 183.78-17.55L183.78-17.55Q183.78-14.85 184.76-12.5 185.73-10.15 187.48-8.38 189.23-6.6 191.56-5.6 193.88-4.6 196.58-4.6L196.58-4.6Q199.03-4.6 201.66-5.6 204.28-6.6 206.38-8.3L206.38-8.3 209.78-4.2Q208.03-2.85 205.76-1.8 203.48-0.75 201.03-0.18 198.58 0.4 196.18 0.4L196.18 0.4Q192.28 0.4 188.96-0.98 185.63-2.35 183.11-4.8 180.58-7.25 179.18-10.53 177.78-13.8 177.78-17.55L177.78-17.55Q177.78-21.3 179.21-24.53 180.63-27.75 183.18-30.2 185.73-32.65 189.16-34 192.58-35.35 196.53-35.35L196.53-35.35Q199.03-35.35 201.46-34.75 203.88-34.15 206.08-33.05 208.28-31.95 209.98-30.4L209.98-30.4ZM204.63-4.2L204.63-17.1 209.78-17.1 209.78-4.2 204.63-4.2ZM218.08 5.85L218.08-40.55 222.43-40.55 222.43 5.85 218.08 5.85ZM229.48-29.95L229.48-35 258.13-35 258.13-31 236.83-5.05 258.38-5.05 258.38 0 228.83 0 228.83-4 250.18-29.95 229.48-29.95Z" opacity="1" transform="matrix(1,0,0,1,0,0)" fill="#111111" class="wordmark-text-0" data-fill-palette-color="primary" id="text-0"></path></svg></g></svg></g><g transform="matrix(1,0,0,1,0,91.70310609227892)"><svg viewBox="0 0 232.209792 21.43405581033813" height="21.43405581033813" width="232.209792"><g transform="matrix(1,0,0,1,0,0)"><svg width="232.209792" viewBox="2.3 -36.55 514.5400000000001 47.5" height="21.43405581033813" data-palette-color="#111111"><path d="M13.45 0.6L13.45 0.6Q9.85 0.6 7.05-0.78 4.25-2.15 2.3-4.35L2.3-4.35 3.8-5.95Q5.6-3.9 8.1-2.7 10.6-1.5 13.45-1.5L13.45-1.5Q17.25-1.5 19.45-3.33 21.65-5.15 21.65-8.1L21.65-8.1Q21.65-9.65 21.18-10.73 20.7-11.8 19.9-12.58 19.1-13.35 18.03-13.9 16.95-14.45 15.75-15L15.75-15 10.75-17.25Q9.7-17.7 8.5-18.35 7.3-19 6.33-19.98 5.35-20.95 4.7-22.28 4.05-23.6 4.05-25.45L4.05-25.45Q4.05-27.25 4.78-28.73 5.5-30.2 6.78-31.28 8.05-32.35 9.83-32.95 11.6-33.55 13.65-33.55L13.65-33.55Q16.65-33.55 18.98-32.38 21.3-31.2 22.8-29.6L22.8-29.6 21.5-28.1Q20.05-29.6 18.1-30.53 16.15-31.45 13.65-31.45L13.65-31.45Q10.35-31.45 8.35-29.85 6.35-28.25 6.35-25.55L6.35-25.55Q6.35-24.1 6.9-23.1 7.45-22.1 8.3-21.38 9.15-20.65 10.15-20.13 11.15-19.6 12.05-19.2L12.05-19.2 17.05-17Q18.45-16.4 19.7-15.65 20.95-14.9 21.9-13.9 22.85-12.9 23.43-11.53 24-10.15 24-8.25L24-8.25Q24-6.35 23.25-4.73 22.5-3.1 21.13-1.93 19.75-0.75 17.8-0.08 15.85 0.6 13.45 0.6ZM35.9 0.6L35.9 0.6Q34.45 0.6 33.2 0.2 31.95-0.2 31-1 30.05-1.8 29.5-3.05 28.95-4.3 28.95-6L28.95-6Q28.95-10 32.67-12.08 36.4-14.15 44.45-15.05L44.45-15.05Q44.45-16.4 44.25-17.78 44.05-19.15 43.4-20.23 42.75-21.3 41.65-21.98 40.55-22.65 38.75-22.65L38.75-22.65Q36.35-22.65 34.35-21.7 32.35-20.75 31.1-19.85L31.1-19.85 30.1-21.5Q30.75-21.95 31.67-22.5 32.6-23.05 33.75-23.5 34.9-23.95 36.25-24.28 37.6-24.6 39.05-24.6L39.05-24.6Q41.15-24.6 42.6-23.88 44.05-23.15 44.95-21.9 45.85-20.65 46.25-18.98 46.65-17.3 46.65-15.35L46.65-15.35 46.65 0 44.75 0 44.55-3.1 44.4-3.1Q42.55-1.65 40.42-0.53 38.3 0.6 35.9 0.6ZM36.3-1.3L36.3-1.3Q38.4-1.3 40.3-2.3 42.2-3.3 44.45-5.2L44.45-5.2 44.45-13.35Q40.75-12.9 38.2-12.25 35.65-11.6 34.1-10.7 32.55-9.8 31.87-8.65 31.2-7.5 31.2-6.1L31.2-6.1Q31.2-4.8 31.6-3.9 32-3 32.7-2.43 33.4-1.85 34.32-1.58 35.25-1.3 36.3-1.3ZM57.74 0L55.55 0 55.55-22.1 52.24-22.1 52.24-23.8 55.55-24 55.55-29.35Q55.55-32.95 57.09-34.75 58.64-36.55 61.49-36.55L61.49-36.55Q63.24-36.55 65-35.75L65-35.75 64.39-33.95Q63.64-34.35 62.92-34.5 62.2-34.65 61.49-34.65L61.49-34.65Q59.59-34.65 58.67-33.25 57.74-31.85 57.74-29.2L57.74-29.2 57.74-24 63.3-24 63.3-22.1 57.74-22.1 57.74 0ZM76.94 0.6L76.94 0.6Q74.64 0.6 72.62-0.25 70.59-1.1 69.09-2.73 67.59-4.35 66.72-6.68 65.84-9 65.84-11.95L65.84-11.95Q65.84-14.9 66.72-17.25 67.59-19.6 69.07-21.23 70.54-22.85 72.42-23.73 74.29-24.6 76.29-24.6L76.29-24.6Q80.59-24.6 83.04-21.7 85.49-18.8 85.49-13.5L85.49-13.5Q85.49-13.05 85.49-12.6 85.49-12.15 85.39-11.7L85.39-11.7 68.09-11.7Q68.14-9.45 68.79-7.53 69.44-5.6 70.62-4.23 71.79-2.85 73.44-2.08 75.09-1.3 77.14-1.3L77.14-1.3Q79.09-1.3 80.67-1.88 82.24-2.45 83.59-3.45L83.59-3.45 84.49-1.75Q83.04-0.9 81.32-0.15 79.59 0.6 76.94 0.6ZM68.09-13.5L68.09-13.5 83.39-13.5Q83.39-18.15 81.49-20.43 79.59-22.7 76.34-22.7L76.34-22.7Q74.79-22.7 73.39-22.08 71.99-21.45 70.87-20.25 69.74-19.05 69.02-17.35 68.29-15.65 68.09-13.5ZM98.04 0.6L98.04 0.6Q96.29 0.6 95.14 0.08 93.99-0.45 93.29-1.4 92.59-2.35 92.31-3.7 92.04-5.05 92.04-6.65L92.04-6.65 92.04-22.1 88.29-22.1 88.29-23.8 92.09-24 92.39-30.95 94.29-30.95 94.29-24 101.24-24 101.24-22.1 94.29-22.1 94.29-6.45Q94.29-5.3 94.47-4.38 94.64-3.45 95.09-2.78 95.54-2.1 96.31-1.73 97.09-1.35 98.34-1.35L98.34-1.35Q99.04-1.35 99.87-1.58 100.69-1.8 101.34-2.1L101.34-2.1 101.94-0.3Q100.89 0.1 99.84 0.35 98.79 0.6 98.04 0.6ZM106.14 10.95L106.14 10.95Q104.79 10.95 103.69 10.45L103.69 10.45 104.19 8.5Q104.59 8.65 105.09 8.78 105.59 8.9 106.14 8.9L106.14 8.9Q108.39 8.9 109.89 7.1 111.39 5.3 112.29 2.55L112.29 2.55 112.94 0.45 103.09-24 105.49-24 111.29-8.9Q111.84-7.4 112.51-5.6 113.19-3.8 113.89-2.2L113.89-2.2 114.09-2.2Q114.64-3.8 115.21-5.6 115.79-7.4 116.29-8.9L116.29-8.9 121.44-24 123.69-24 114.19 3Q113.69 4.5 112.96 5.95 112.24 7.4 111.26 8.5 110.29 9.6 109.01 10.28 107.74 10.95 106.14 10.95ZM128.79 0.6L128.79 0.6Q127.94 0.6 127.29 0 126.64-0.6 126.64-1.65L126.64-1.65Q126.64-2.75 127.29-3.35 127.94-3.95 128.79-3.95L128.79-3.95Q129.64-3.95 130.26-3.35 130.89-2.75 130.89-1.65L130.89-1.65Q130.89-0.6 130.26 0 129.64 0.6 128.79 0.6ZM160.53-1.35L160.53-1.35Q163.03-1.35 165.08-2.45 167.13-3.55 168.61-5.53 170.08-7.5 170.88-10.33 171.68-13.15 171.68-16.6L171.68-16.6Q171.68-20 170.88-22.75 170.08-25.5 168.61-27.43 167.13-29.35 165.08-30.4 163.03-31.45 160.53-31.45L160.53-31.45Q158.03-31.45 155.96-30.4 153.88-29.35 152.43-27.43 150.98-25.5 150.18-22.75 149.38-20 149.38-16.6L149.38-16.6Q149.38-13.15 150.18-10.33 150.98-7.5 152.43-5.53 153.88-3.55 155.96-2.45 158.03-1.35 160.53-1.35ZM170.18 7.8L170.18 7.8Q168.08 7.8 166.36 7.25 164.63 6.7 163.26 5.73 161.88 4.75 160.86 3.43 159.83 2.1 159.23 0.55L159.23 0.55Q156.53 0.3 154.28-1.03 152.03-2.35 150.41-4.58 148.78-6.8 147.88-9.85 146.98-12.9 146.98-16.6L146.98-16.6Q146.98-20.5 147.98-23.63 148.98-26.75 150.78-28.98 152.58-31.2 155.08-32.38 157.58-33.55 160.53-33.55L160.53-33.55Q163.53-33.55 166.03-32.38 168.53-31.2 170.33-28.98 172.13-26.75 173.13-23.63 174.13-20.5 174.13-16.6L174.13-16.6Q174.13-12.9 173.23-9.85 172.33-6.8 170.71-4.58 169.08-2.35 166.81-1.03 164.53 0.3 161.78 0.55L161.78 0.55Q162.93 3.05 165.11 4.35 167.28 5.65 170.38 5.65L170.38 5.65Q171.53 5.65 172.31 5.53 173.08 5.4 173.73 5.25L173.73 5.25 174.23 7.2Q173.58 7.4 172.51 7.6 171.43 7.8 170.18 7.8ZM188.33 0.6L188.33 0.6Q184.58 0.6 182.83-1.65 181.08-3.9 181.08-8.6L181.08-8.6 181.08-24 183.28-24 183.28-8.9Q183.28-5.05 184.55-3.23 185.83-1.4 188.73-1.4L188.73-1.4Q190.88-1.4 192.63-2.58 194.38-3.75 196.48-6.3L196.48-6.3 196.48-24 198.68-24 198.68 0 196.83 0 196.58-4 196.48-4Q194.73-1.9 192.78-0.65 190.83 0.6 188.33 0.6ZM213.13 0.6L213.13 0.6Q211.68 0.6 210.43 0.2 209.18-0.2 208.23-1 207.28-1.8 206.73-3.05 206.18-4.3 206.18-6L206.18-6Q206.18-10 209.9-12.08 213.63-14.15 221.68-15.05L221.68-15.05Q221.68-16.4 221.48-17.78 221.28-19.15 220.63-20.23 219.98-21.3 218.88-21.98 217.78-22.65 215.98-22.65L215.98-22.65Q213.58-22.65 211.58-21.7 209.58-20.75 208.33-19.85L208.33-19.85 207.33-21.5Q207.98-21.95 208.9-22.5 209.83-23.05 210.98-23.5 212.13-23.95 213.48-24.28 214.83-24.6 216.28-24.6L216.28-24.6Q218.38-24.6 219.83-23.88 221.28-23.15 222.18-21.9 223.08-20.65 223.48-18.98 223.88-17.3 223.88-15.35L223.88-15.35 223.88 0 221.98 0 221.78-3.1 221.63-3.1Q219.78-1.65 217.65-0.53 215.53 0.6 213.13 0.6ZM213.53-1.3L213.53-1.3Q215.63-1.3 217.53-2.3 219.43-3.3 221.68-5.2L221.68-5.2 221.68-13.35Q217.98-12.9 215.43-12.25 212.88-11.6 211.33-10.7 209.78-9.8 209.1-8.65 208.43-7.5 208.43-6.1L208.43-6.1Q208.43-4.8 208.83-3.9 209.23-3 209.93-2.43 210.63-1.85 211.55-1.58 212.48-1.3 213.53-1.3ZM235.37 0.6L235.37 0.6Q232.42 0.6 232.42-3.2L232.42-3.2 232.42-35.95 234.62-35.95 234.62-2.9Q234.62-2.1 234.92-1.73 235.22-1.35 235.67-1.35L235.67-1.35Q235.82-1.35 236-1.35 236.17-1.35 236.57-1.45L236.57-1.45 236.97 0.35Q236.62 0.45 236.27 0.53 235.92 0.6 235.37 0.6ZM246.47 0L244.27 0 244.27-24 246.47-24 246.47 0ZM245.42-29.8L245.42-29.8Q244.57-29.8 244-30.35 243.42-30.9 243.42-31.75L243.42-31.75Q243.42-32.7 244-33.23 244.57-33.75 245.42-33.75L245.42-33.75Q246.27-33.75 246.85-33.23 247.42-32.7 247.42-31.75L247.42-31.75Q247.42-30.9 246.85-30.35 246.27-29.8 245.42-29.8ZM262.27 0.6L262.27 0.6Q260.52 0.6 259.37 0.08 258.22-0.45 257.52-1.4 256.82-2.35 256.54-3.7 256.27-5.05 256.27-6.65L256.27-6.65 256.27-22.1 252.52-22.1 252.52-23.8 256.32-24 256.62-30.95 258.52-30.95 258.52-24 265.47-24 265.47-22.1 258.52-22.1 258.52-6.45Q258.52-5.3 258.69-4.38 258.87-3.45 259.32-2.78 259.77-2.1 260.54-1.73 261.32-1.35 262.57-1.35L262.57-1.35Q263.27-1.35 264.09-1.58 264.92-1.8 265.57-2.1L265.57-2.1 266.17-0.3Q265.12 0.1 264.07 0.35 263.02 0.6 262.27 0.6ZM270.37 10.95L270.37 10.95Q269.02 10.95 267.92 10.45L267.92 10.45 268.42 8.5Q268.82 8.65 269.32 8.78 269.82 8.9 270.37 8.9L270.37 8.9Q272.62 8.9 274.12 7.1 275.62 5.3 276.52 2.55L276.52 2.55 277.17 0.45 267.32-24 269.72-24 275.52-8.9Q276.07-7.4 276.74-5.6 277.42-3.8 278.12-2.2L278.12-2.2 278.32-2.2Q278.87-3.8 279.44-5.6 280.02-7.4 280.52-8.9L280.52-8.9 285.67-24 287.92-24 278.42 3Q277.92 4.5 277.19 5.95 276.47 7.4 275.49 8.5 274.52 9.6 273.24 10.28 271.97 10.95 270.37 10.95ZM293.01 0.6L293.01 0.6Q292.16 0.6 291.51 0 290.86-0.6 290.86-1.65L290.86-1.65Q290.86-2.75 291.51-3.35 292.16-3.95 293.01-3.95L293.01-3.95Q293.86-3.95 294.49-3.35 295.11-2.75 295.11-1.65L295.11-1.65Q295.11-0.6 294.49 0 293.86 0.6 293.01 0.6ZM331.86 0L313.31 0 313.31-32.95 331.36-32.95 331.36-30.95 315.61-30.95 315.61-18.5 328.81-18.5 328.81-16.5 315.61-16.5 315.61-2 331.86-2 331.86 0ZM336.11 0L333.76 0 341.91-12.55 334.41-24 336.86-24 340.76-17.9Q341.36-16.9 341.98-15.93 342.61-14.95 343.31-13.95L343.31-13.95 343.51-13.95Q344.16-14.95 344.73-15.93 345.31-16.9 345.96-17.9L345.96-17.9 349.71-24 352.01-24 344.56-12.35 352.71 0 350.26 0 346.01-6.55Q345.31-7.7 344.61-8.8 343.91-9.9 343.16-10.95L343.16-10.95 342.96-10.95Q342.26-9.9 341.58-8.8 340.91-7.7 340.21-6.55L340.21-6.55 336.11 0ZM366.3 0.6L366.3 0.6Q363.95 0.6 361.98-0.25 360-1.1 358.53-2.7 357.05-4.3 356.23-6.63 355.4-8.95 355.4-11.95L355.4-11.95Q355.4-14.95 356.3-17.32 357.2-19.7 358.7-21.3 360.2-22.9 362.18-23.75 364.15-24.6 366.35-24.6L366.35-24.6Q368.85-24.6 370.5-23.7 372.15-22.8 373.4-21.65L373.4-21.65 372.1-20.1Q370.95-21.2 369.55-21.93 368.15-22.65 366.4-22.65L366.4-22.65Q364.55-22.65 362.98-21.88 361.4-21.1 360.23-19.68 359.05-18.25 358.38-16.3 357.7-14.35 357.7-11.95L357.7-11.95Q357.7-9.6 358.33-7.65 358.95-5.7 360.08-4.3 361.2-2.9 362.83-2.13 364.45-1.35 366.4-1.35L366.4-1.35Q368.3-1.35 369.93-2.15 371.55-2.95 372.8-4.1L372.8-4.1 373.95-2.55Q372.4-1.2 370.5-0.3 368.6 0.6 366.3 0.6ZM388.1 0.6L388.1 0.6Q385.8 0.6 383.78-0.25 381.75-1.1 380.25-2.73 378.75-4.35 377.88-6.68 377-9 377-11.95L377-11.95Q377-14.9 377.88-17.25 378.75-19.6 380.23-21.23 381.7-22.85 383.58-23.73 385.45-24.6 387.45-24.6L387.45-24.6Q391.75-24.6 394.2-21.7 396.65-18.8 396.65-13.5L396.65-13.5Q396.65-13.05 396.65-12.6 396.65-12.15 396.55-11.7L396.55-11.7 379.25-11.7Q379.3-9.45 379.95-7.53 380.6-5.6 381.78-4.23 382.95-2.85 384.6-2.08 386.25-1.3 388.3-1.3L388.3-1.3Q390.25-1.3 391.83-1.88 393.4-2.45 394.75-3.45L394.75-3.45 395.65-1.75Q394.2-0.9 392.48-0.15 390.75 0.6 388.1 0.6ZM379.25-13.5L379.25-13.5 394.55-13.5Q394.55-18.15 392.65-20.43 390.75-22.7 387.5-22.7L387.5-22.7Q385.95-22.7 384.55-22.08 383.15-21.45 382.03-20.25 380.9-19.05 380.18-17.35 379.45-15.65 379.25-13.5ZM406.1 0.6L406.1 0.6Q403.15 0.6 403.15-3.2L403.15-3.2 403.15-35.95 405.35-35.95 405.35-2.9Q405.35-2.1 405.65-1.73 405.95-1.35 406.4-1.35L406.4-1.35Q406.55-1.35 406.72-1.35 406.9-1.35 407.3-1.45L407.3-1.45 407.7 0.35Q407.35 0.45 407 0.53 406.65 0.6 406.1 0.6ZM417.95 0.6L417.95 0.6Q415 0.6 415-3.2L415-3.2 415-35.95 417.2-35.95 417.2-2.9Q417.2-2.1 417.5-1.73 417.8-1.35 418.25-1.35L418.25-1.35Q418.4-1.35 418.57-1.35 418.75-1.35 419.15-1.45L419.15-1.45 419.55 0.35Q419.2 0.45 418.85 0.53 418.5 0.6 417.95 0.6ZM435.94 0.6L435.94 0.6Q433.64 0.6 431.62-0.25 429.59-1.1 428.09-2.73 426.59-4.35 425.72-6.68 424.84-9 424.84-11.95L424.84-11.95Q424.84-14.9 425.72-17.25 426.59-19.6 428.07-21.23 429.54-22.85 431.42-23.73 433.29-24.6 435.29-24.6L435.29-24.6Q439.59-24.6 442.04-21.7 444.49-18.8 444.49-13.5L444.49-13.5Q444.49-13.05 444.49-12.6 444.49-12.15 444.39-11.7L444.39-11.7 427.09-11.7Q427.14-9.45 427.79-7.53 428.44-5.6 429.62-4.23 430.79-2.85 432.44-2.08 434.09-1.3 436.14-1.3L436.14-1.3Q438.09-1.3 439.67-1.88 441.24-2.45 442.59-3.45L442.59-3.45 443.49-1.75Q442.04-0.9 440.32-0.15 438.59 0.6 435.94 0.6ZM427.09-13.5L427.09-13.5 442.39-13.5Q442.39-18.15 440.49-20.43 438.59-22.7 435.34-22.7L435.34-22.7Q433.79-22.7 432.39-22.08 430.99-21.45 429.87-20.25 428.74-19.05 428.02-17.35 427.29-15.65 427.09-13.5ZM453.19 0L450.99 0 450.99-24 452.89-24 453.09-20.3 453.24-20.3Q455.09-22.15 457.04-23.38 458.99-24.6 461.49-24.6L461.49-24.6Q465.24-24.6 466.99-22.35 468.74-20.1 468.74-15.4L468.74-15.4 468.74 0 466.54 0 466.54-15.1Q466.54-18.95 465.27-20.78 463.99-22.6 461.04-22.6L461.04-22.6Q458.89-22.6 457.14-21.48 455.39-20.35 453.19-18.1L453.19-18.1 453.19 0ZM486.49 0.6L486.49 0.6Q484.14 0.6 482.16-0.25 480.19-1.1 478.71-2.7 477.24-4.3 476.41-6.63 475.59-8.95 475.59-11.95L475.59-11.95Q475.59-14.95 476.49-17.32 477.39-19.7 478.89-21.3 480.39-22.9 482.36-23.75 484.34-24.6 486.54-24.6L486.54-24.6Q489.04-24.6 490.69-23.7 492.34-22.8 493.59-21.65L493.59-21.65 492.29-20.1Q491.14-21.2 489.74-21.93 488.34-22.65 486.59-22.65L486.59-22.65Q484.74-22.65 483.16-21.88 481.59-21.1 480.41-19.68 479.24-18.25 478.56-16.3 477.89-14.35 477.89-11.95L477.89-11.95Q477.89-9.6 478.51-7.65 479.14-5.7 480.26-4.3 481.39-2.9 483.01-2.13 484.64-1.35 486.59-1.35L486.59-1.35Q488.49-1.35 490.11-2.15 491.74-2.95 492.99-4.1L492.99-4.1 494.14-2.55Q492.59-1.2 490.69-0.3 488.79 0.6 486.49 0.6ZM508.29 0.6L508.29 0.6Q505.99 0.6 503.96-0.25 501.94-1.1 500.44-2.73 498.94-4.35 498.06-6.68 497.19-9 497.19-11.95L497.19-11.95Q497.19-14.9 498.06-17.25 498.94-19.6 500.41-21.23 501.89-22.85 503.76-23.73 505.64-24.6 507.64-24.6L507.64-24.6Q511.94-24.6 514.38-21.7 516.84-18.8 516.84-13.5L516.84-13.5Q516.84-13.05 516.84-12.6 516.84-12.15 516.74-11.7L516.74-11.7 499.44-11.7Q499.49-9.45 500.14-7.53 500.79-5.6 501.96-4.23 503.14-2.85 504.79-2.08 506.44-1.3 508.49-1.3L508.49-1.3Q510.44-1.3 512.01-1.88 513.59-2.45 514.94-3.45L514.94-3.45 515.84-1.75Q514.38-0.9 512.66-0.15 510.94 0.6 508.29 0.6ZM499.44-13.5L499.44-13.5 514.74-13.5Q514.74-18.15 512.84-20.43 510.94-22.7 507.69-22.7L507.69-22.7Q506.14-22.7 504.74-22.08 503.34-21.45 502.21-20.25 501.09-19.05 500.36-17.35 499.64-15.65 499.44-13.5Z" opacity="1" transform="matrix(1,0,0,1,0,0)" fill="#111111" class="slogan-text-1" data-fill-palette-color="secondary" id="text-1"></path></svg></g></svg></g></svg></g></svg></g><g transform="matrix(1,0,0,1,0,0.28284290475653506)"><svg viewBox="0 0 124.32655154133741 113.13716190261704" height="113.13716190261704" width="124.32655154133741"><g><svg version="1.1" xmlns="http://www.w3.org/2000/svg" xmlns:xlink="http://www.w3.org/1999/xlink" x="0" y="0" viewBox="0 0 100 91" enable-background="new 0 0 100 91" xml:space="preserve" height="113.13716190261704" width="124.32655154133741" class="icon-icon-0" data-fill-palette-color="accent" id="icon-0"><path d="M85.152 20H86A3 3 0 1 0 86 14H53.274L53 3A3 3 0 1 0 47 3L46.726 14H14A3 3 0 1 0 14 20H14.848L0 63S0 73 18 73 36 63 36 63L21.152 20H46.577L46.524 22.116A5.986 5.986 0 0 0 46.285 31.706L45.053 81.164C26.015 82.437 26 91 26 91H74S73.984 82.437 54.947 81.163L53.715 31.705A5.987 5.987 0 0 0 53.477 22.116L53.424 20H78.848L64 63S64 73 82 73 100 63 100 63zM16 29.082V63H4.453zM20 63V29.082L31.547 63zM84 29.082L95.547 63H84zM80 29.082V63H68.453z" fill="#111111" data-fill-palette-color="accent"></path></svg></g></svg></g></svg></g><defs></defs></svg><rect width="395.52" height="80.08283476377204" fill="none" stroke="none" visibility="hidden"></rect></g></svg></g></svg>